# xmcd
#
# Track frame offsets: 
#        200
#        13790
#        30042
#        40885
#        52017
#        64637
#        78760
#        91177
#        106925
#        120855
#        132967
#        145140
#        158307
#        170787
#
# Disc length: 2466 seconds
#
# Revision: 1
# Processed by: cddbd v1.5.2PL0 Copyright (c) Steve Scherf et al.
# Submitted via: ExactAudioCopy v0.99pb5
#
DISCID=9e09a00e
DTITLE=Robert Jr. Lockwood - Steady Rollin' Man
DYEAR=1970
DGENRE=blues
TTITLE0=Steady Rollin' Man
TTITLE1=Western Horizon
TTITLE2=Take a Walk With Me
TTITLE3=Steady Groove
TTITLE4=Mean Red Spider
TTITLE5=Lockwood's Boogie
TTITLE6=Ramblin' on my Mind
TTITLE7=Blues and Trouble
TTITLE8=Worst Old Feeling
TTITLE9=Kind-Hearted Woman
TTITLE10=Can't Stand the Pain
TTITLE11=Tanya
TTITLE12=Worst Old Feeling (alt.)
TTITLE13=Lockwood's Boogie (alt.)
EXTD=
EXTT0=
EXTT1=
EXTT2=
EXTT3=
EXTT4=
EXTT5=
EXTT6=
EXTT7=
EXTT8=
EXTT9=
EXTT10=
EXTT11=
EXTT12=
EXTT13=
PLAYORDER=
